' Copyright (C) 2021 - present Alexander Mader, Marius Gulden, Matthias Treise
'
' This program is free software: you can redistribute it and/or modify
' it under the terms of the GNU General Public License as published by
' the Free Software Foundation, either version 3 of the License, or
' (at your option) any later version.
'
' This program is distributed in the hope that it will be useful,
' but WITHOUT ANY WARRANTY; without even the implied warranty of
' MERCHANTABILITY or FITNESS FOR A PARTICULAR PURPOSE.  See the
' GNU General Public License for more details.
'
' You should have received a copy of the GNU General Public License
' along with this program.  If not, see <https://www.gnu.org/licenses/>.
@startuml Anwendungskern

!pragma useNewPackage
skinparam classAttributeIconSize 0
skinparam componentStyle uml2

interface Promise<T>

package shared {
  class "sendMail()" as sendMail
  hide sendMail circle
}

package film {
  package entity {
    class FilmModel
    hide FilmModel circle

    class "validateFilm()" as validateFilm
    hide validateFilm circle

    interface FilmData <<entity>>
  }

  package service #DDDDDD {
    FilmService ..> Promise
    FilmService ..> FilmModel
    FilmService ..> FilmData
    FilmService ..> validateFilm
    FilmService ..> sendMail

    class FilmService << control >> {
      + async findById(id: string): Promise<FilmData | undefined>
      + async find(query?: any): Promise<Array<FilmData>>
      + async create(film: FilmData): Promise<FilmData>
      + async update(film: FilmData, version: string): Promise<FilmData>
      + async delete(id: string): Promise<boolean>
    }
  }
}

hide empty members

footer (c) Alexander Mader, Marius Gulden, Matthias Treise

@enduml
